<svg width="24" height="24" viewBox="0 0 24 24" fill="none" xmlns="http://www.w3.org/2000/svg">
    <path d="M21.5086 9.93488H13.2133V1.63937C13.2133 0.734 12.4792 0 11.5739 0C10.6685 0 9.9345 0.734125 9.9345 1.63937V9.93538H1.63938C0.734126 9.93538 0 10.6695 0 11.5748C0 12.4801 0.734126 13.2141 1.63938 13.2141H9.93413V21.5094C9.93413 22.4146 10.6681 23.1486 11.5735 23.1486C12.4787 23.1486 13.2129 22.4146 13.2129 21.5094V13.2138H21.5088C22.4139 13.2138 23.148 12.4796 23.148 11.5744C23.148 10.669 22.4139 9.93488 21.5086 9.93488Z"
          fill="#DB4A2B"/>
</svg>
