<svg width="38" height="38" viewBox="0 0 38 38" fill="none" xmlns="http://www.w3.org/2000/svg">
    <path d="M5.66661 0.666668C5.24015 0.666668 4.81322 0.829115 4.48822 1.15495L1.15489 4.48828C0.503221 5.13995 0.503221 6.19505 1.15489 6.84505L13.3098 19L1.15489 31.1549C0.503221 31.8066 0.503221 32.8617 1.15489 33.5117L4.48822 36.8451C5.13989 37.4967 6.19499 37.4967 6.84499 36.8451L18.9999 24.6901L31.1549 36.8451C31.8049 37.4967 32.8617 37.4967 33.5117 36.8451L36.845 33.5117C37.4967 32.8601 37.4967 31.8049 36.845 31.1549L24.69 19L36.845 6.84505C37.4967 6.19505 37.4967 5.13828 36.845 4.48828L33.5117 1.15495C32.86 0.503282 31.8049 0.503282 31.1549 1.15495L18.9999 13.3099L6.84499 1.15495C6.51916 0.829115 6.09306 0.666668 5.66661 0.666668Z"
          fill="#DB4A2B"/>
</svg>
