<svg xmlns="http://www.w3.org/2000/svg" width="500" height="500">
    <path d="M0 0h500v500H0V0z" fill="#db4a2b"/>
    <path d="M406.039 198.379c9.548 7.893 14.215 18.874 15.734 31.032.492 5.605.559 11.215.602 16.839l.042 3.587c-.054 9.963-1.758 18.636-6.355 27.538l-1.465 2.898c-4.856 8.288-13.261 14.727-22.633 17.281-11.224 1.686-23.941 2.131-33.965-3.555l-8-6v47h-39V193h31c3.375 7.875 3.375 7.875 4 12l1.875-2.062c16.041-15.816 39.686-17.933 58.164-4.559zM137 154h39l1 76 16.563-19.562 2.233-2.642c2.301-2.8 2.301-2.8 4.229-6.142 2.944-4.608 5.936-8.796 11.401-10.338 6.908-.944 13.824-.5 20.762-.128l6.354.178L254 192c-1.526 3.216-3.098 5.288-5.687 7.75-2.592 2.527-5.083 5.063-7.437 7.813a225.83 225.83 0 0 1-7.215 7.996l-1.849 1.961-3.661 3.85c-4.071 4.308-7.69 8.818-11.15 13.631l1.984 3.051 16.297 25.472 8.554 13.466 1.942 3.032 3.766 5.859 1.718 2.683 1.53 2.379C254 293 254 293 255 296l-18.469.494-6.279.185-9.041.2-2.823.141c-2.732.002-4.807-.115-7.388-1.02-2.65-2.679-4.284-5.668-6-9l-1.95-3.085-5.362-8.79-1.916-3.125-1.822-2.992-1.646-2.699C191 264 191 264 190 261l-3.687 3.188-2.074 1.793L182 268l-2.719 2c-3.507 4.612-3.061 9.174-3.094 14.813L176 296h-39V154z"
          fill="#e3e0db"/>
    <path d="M116 200c5.034 4.233 8.915 9.746 11 16v8H90l-1-7c-4.69-1.837-8.601-2.243-13.625-2.187l-3.914.02c-2.706.131-4.901.356-7.461 1.168v7c9.53 3.962 19.008 5.506 29.174 6.979 12.53 1.966 24.06 5.383 32.135 15.692 3.739 5.318 4.528 9.652 4.379 16.08l-.041 2.659c-.351 8.677-2.654 15.199-8.556 21.693-11.72 10.296-29.041 12.288-44.027 12.148l-3.196-.021C66.76 298.135 59.895 297.863 53 296l-2.766-.742c-10.02-3.163-19.148-9.233-24.5-18.434l-.984-2.137-1.016-2.113C23 270 23 270 23 262h36l3 8c3.616 3.616 8.431 4.249 13.375 4.375 5.338-.194 10.443-1.116 15.625-2.375.417-3.374.417-3.374 0-7-3.5-2.686-6.912-3.634-11.191-4.5l-3.615-.75-3.756-.75c-33.844-6.909-33.844-6.909-43.098-17.973-5.01-7.581-4.258-17.28-3.34-26.027 1.944-7.461 6.602-12.838 13-17 21.63-11.521 56.492-13.405 77 2z"
          fill="#e3e0da"/>
    <path d="M257 192h40v104h-40V192z" fill="#e3ded8"/>
    <path d="M430 257h42v39h-42v-39z" fill="#e3e0db"/>
    <path d="M373.332 219.719c4.264 1.962 6.776 3.83 8.668 8.281 1.66 5.422 1.307 11.132 1.375 16.75l.113 3.5c.074 7.18-.471 12.357-5.488 17.75-4.617 3.758-9.07 3.617-14.828 3.48-4.786-.725-7.296-2.678-10.172-6.48-5.41-8.837-5.475-21.18-3.316-31.16 3.873-10.654 12.561-15.538 23.648-12.121z"
          fill="#db4c2d"/>
    <path d="M258 154h39v27h-39v-27z" fill="#e3ddd7"/>
</svg>